# xmcd
#
# Track frame offsets: 
#        150
#        25440
#        51866
#        97544
#        122787
#        161962
#        183743
#        199099
#        229355
#        250138
#
# Disc length: 3618 seconds
#
# Revision: 0
# Processed by: cddbd v1.5.2PL0 Copyright (c) Steve Scherf et al.
# Submitted via: ExactAudioCopyFreeDBPlugin 1.0
#
DISCID=890e200a
DTITLE=Terry 'Harmonica' Bean - Two Sides Of The Blues
DYEAR=2007
DGENRE=Blues
TTITLE0=Bad Blues
TTITLE1=Why You Do Me Like Me Like You Do
TTITLE2=No Time To Play
TTITLE3=They Call Me Terry
TTITLE4=I'm Ready
TTITLE5=Kind Hearted Baby
TTITLE6=Back South
TTITLE7=Blues Man Boogie
TTITLE8=Shake, Rattle and Rollin'
TTITLE9=Work For My baby
EXTD=
EXTT0=
EXTT1=
EXTT2=
EXTT3=
EXTT4=
EXTT5=
EXTT6=
EXTT7=
EXTT8=
EXTT9=
PLAYORDER=
